<svg width="1354" height="196" viewBox="0 0 1354 196" xmlns="http://www.w3.org/2000/svg"><g transform="translate(3)" fill="#46ECA1" fill-rule="evenodd"><rect opacity=".9" x="168" y="140" width="56" height="56"/><rect opacity=".9" x="224" y="84" width="56" height="56"/><rect x="448" y="84" width="56" height="56"/><rect opacity=".8" x="672" y="84" width="56" height="56"/><rect opacity=".8" x="896" y="84" width="56" height="56"/><rect opacity=".9" x="336" y="84" width="56" height="56"/><rect opacity=".8" x="560" y="84" width="56" height="56"/><rect opacity=".9" x="784" y="84" width="56" height="56"/><rect x="1008" y="84" width="56" height="56"/><rect opacity=".8" x="280" y="84" width="56" height="56"/><rect opacity=".9" x="504" y="84" width="56" height="56"/><rect x="728" y="84" width="56" height="56"/><rect opacity=".9" x="952" y="84" width="56" height="56"/><rect opacity=".8" x="392" y="84" width="56" height="56"/><rect opacity=".9" x="616" y="84" width="56" height="56"/><rect opacity=".9" x="840" y="84" width="56" height="56"/><rect opacity=".9" x="1064" y="84" width="60" height="56"/><rect opacity=".8" x="224" y="140" width="56" height="56"/><rect opacity=".8" x="448" y="140" width="56" height="56"/><rect opacity=".8" x="672" y="140" width="56" height="56"/><rect x="896" y="140" width="56" height="56"/><rect opacity=".9" x="336" y="140" width="56" height="56"/><rect opacity=".9" x="560" y="140" width="56" height="56"/><rect opacity=".9" x="784" y="140" width="56" height="56"/><rect opacity=".9" x="1008" y="140" width="56" height="56"/><rect x="280" y="140" width="56" height="56"/><rect opacity=".9" x="504" y="140" width="56" height="56"/><rect x="728" y="140" width="56" height="56"/><rect opacity=".8" x="952" y="140" width="56" height="56"/><rect x="392" y="140" width="56" height="56"/><rect opacity=".8" x="616" y="140" width="56" height="56"/><rect opacity=".8" x="840" y="140" width="56" height="56"/><rect opacity=".8" x="1064" y="140" width="60" height="56"/><rect opacity=".9" transform="matrix(-1 0 0 1 2304 0)" x="1124" y="140" width="56" height="56"/><rect opacity=".6" transform="matrix(-1 0 0 1 2304 0)" x="1124" y="84" width="56" height="56"/><rect opacity=".3" transform="matrix(-1 0 0 1 2416 0)" x="1180" y="140" width="56" height="56"/><rect opacity=".3" transform="matrix(-1 0 0 1 2528 0)" x="1236" y="84" width="56" height="56"/><rect opacity=".2" transform="matrix(-1 0 0 1 2640 0)" x="1292" y="140" width="56" height="56"/><rect opacity=".2" transform="matrix(-1 0 0 1 2220 0)" x="1096" y="56" width="28" height="28"/><rect opacity=".8" transform="matrix(-1 0 0 1 2100 0)" x="1036" y="56" width="28" height="28"/><rect opacity=".3" transform="matrix(-1 0 0 1 2276 0)" x="1124" y="28" width="28" height="28"/><rect opacity=".4" transform="matrix(-1 0 0 1 2444 0)" x="1208" y="112" width="28" height="28"/><rect opacity=".2" transform="matrix(-1 0 0 1 2388 0)" x="1180" y="56" width="28" height="28"/><rect opacity=".6" transform="matrix(-1 0 0 1 2556 0)" x="1264" y="168" width="28" height="28"/><rect x="168" y="84" width="56" height="56"/><rect opacity=".6" x="112" y="140" width="56" height="56"/><rect opacity=".3" x="56" y="28" width="56" height="56"/><rect opacity=".2" y="140" width="56" height="56"/><rect opacity=".2" x="224" y="56" width="28" height="28"/><rect opacity=".2" x="140" y="112" width="28" height="28"/><rect opacity=".2" x="140" width="28" height="28"/><rect opacity=".3" x="56" y="168" width="28" height="28"/></g></svg>